<svg xmlns="http://www.w3.org/2000/svg" viewBox="0 0 160 90" width="160" height="90">
	<style>
		tspan { white-space:pre }
	</style>
	<path id="CLICK TO SHOOT. " fill="#000000" d="M4.07 37.88Q4.07 35.2 5.49 33.38Q6.93 31.56 8.88 31.56Q10.34 31.56 11.49 32.52Q11.6 32.29 11.66 32.16Q11.72 32.04 11.75 31.98Q11.78 31.92 11.78 31.9Q12.02 31.56 12.35 31.56Q12.94 31.56 12.94 32.38L12.94 35.16Q12.94 35.43 12.92 35.56Q12.9 35.7 12.73 35.85Q12.56 35.98 12.25 35.98Q11.97 35.98 11.8 35.88Q11.64 35.76 11.61 35.66Q11.58 35.56 11.55 35.32Q11.35 34.14 10.63 33.46Q9.91 32.78 8.97 32.78Q7.59 32.78 6.52 34.25Q5.44 35.72 5.44 37.88Q5.44 40.05 6.51 41.53Q7.58 43 8.99 43Q9.83 43 10.65 42.44Q11.47 41.86 11.57 40.56Q11.6 39.99 12.25 39.98Q12.95 39.98 12.94 40.64Q12.94 42.04 11.77 43.13Q10.61 44.22 8.91 44.22Q6.93 44.22 5.49 42.4Q4.07 40.57 4.07 37.88ZM14.41 43.4Q14.41 43.12 14.55 42.97Q14.7 42.82 14.83 42.8Q14.96 42.78 15.2 42.78L15.94 42.78L15.94 33L15.2 33Q14.41 33 14.41 32.41Q14.41 32.12 14.55 31.97Q14.7 31.82 14.83 31.8Q14.96 31.78 15.2 31.78L18.44 31.78Q19.26 31.78 19.26 32.4Q19.26 32.99 18.44 33L17.33 33L17.33 42.78L22.14 42.78L22.14 41.4Q22.14 41.12 22.16 40.98Q22.18 40.84 22.35 40.71Q22.52 40.58 22.84 40.58Q23.3 40.58 23.41 40.8Q23.52 41 23.52 41.4L23.52 43.18Q23.52 43.66 23.36 43.83Q23.21 44 22.73 44L15.2 44Q14.41 44 14.41 43.4ZM25.84 43.38Q25.84 42.79 26.66 42.78L28.82 42.78L28.82 33L26.66 33Q25.84 33 25.84 32.38Q25.84 31.78 26.66 31.78L32.36 31.78Q33.18 31.78 33.18 32.4Q33.18 32.99 32.36 33L30.2 33L30.2 42.78L32.36 42.78Q33.18 42.78 33.18 43.4Q33.18 44 32.36 44L26.66 44Q25.84 44 25.84 43.38ZM35.56 37.88Q35.56 35.2 36.99 33.38Q38.42 31.56 40.37 31.56Q41.84 31.56 42.98 32.52Q43.1 32.29 43.16 32.16Q43.22 32.04 43.25 31.98Q43.27 31.92 43.27 31.9Q43.52 31.56 43.84 31.56Q44.44 31.56 44.44 32.38L44.44 35.16Q44.44 35.43 44.42 35.56Q44.4 35.7 44.22 35.85Q44.06 35.98 43.74 35.98Q43.46 35.98 43.29 35.88Q43.14 35.76 43.11 35.66Q43.08 35.56 43.04 35.32Q42.84 34.14 42.12 33.46Q41.4 32.78 40.46 32.78Q39.08 32.78 38.01 34.25Q36.94 35.72 36.94 37.88Q36.94 40.05 38 41.53Q39.08 43 40.48 43Q41.32 43 42.14 42.44Q42.96 41.86 43.06 40.56Q43.1 39.99 43.74 39.98Q44.45 39.98 44.44 40.64Q44.44 42.04 43.26 43.13Q42.1 44.22 40.4 44.22Q38.42 44.22 36.99 42.4Q35.56 40.57 35.56 37.88ZM45.77 43.38Q45.77 42.79 46.59 42.78L47.03 42.78L47.03 33L46.59 33Q45.77 33 45.77 32.38Q45.77 31.78 46.59 31.78L48.6 31.78Q49.42 31.78 49.42 32.4Q49.42 32.99 48.6 33L48.16 33L48.16 38.32L52.38 33Q51.56 33 51.56 32.4Q51.56 31.78 52.38 31.78L54.13 31.78Q54.95 31.78 54.95 32.38Q54.95 32.68 54.8 32.83Q54.64 32.96 54.45 32.98Q54.26 33 53.82 33L50.77 36.84L53.98 42.54Q53.98 42.55 54.04 42.65Q54.09 42.74 54.11 42.78Q54.5 42.78 54.66 42.8Q54.84 42.82 54.99 42.96Q55.16 43.1 55.16 43.4Q55.16 44 54.34 44L52.83 44Q52.01 44 52.01 43.38Q52.01 42.79 52.82 42.78L50.01 37.78L48.16 40.12L48.16 42.78L48.6 42.78Q49.42 42.78 49.42 43.4Q49.42 44 48.6 44L46.59 44Q45.77 44 45.77 43.38ZM66.77 34.06L66.77 32.6Q66.77 32.11 66.93 31.95Q67.09 31.78 67.59 31.78L75.41 31.78Q75.91 31.78 76.06 31.95Q76.21 32.12 76.21 32.6L76.21 34.06Q76.21 34.32 76.19 34.46Q76.17 34.6 76 34.74Q75.83 34.88 75.51 34.88Q75.05 34.88 74.94 34.67Q74.84 34.46 74.84 34.06L74.84 33L72.19 33L72.19 42.78L73.24 42.78Q73.48 42.78 73.61 42.8Q73.73 42.82 73.88 42.97Q74.04 43.12 74.04 43.4Q74.04 44 73.24 44L69.77 44Q69.52 44 69.4 43.98Q69.27 43.96 69.12 43.81Q68.98 43.66 68.98 43.38Q68.98 42.79 69.77 42.78L70.81 42.78L70.81 33L68.16 33L68.16 34.06Q68.16 34.32 68.13 34.46Q68.11 34.6 67.94 34.74Q67.78 34.88 67.45 34.88Q67 34.88 66.88 34.67Q66.77 34.46 66.77 34.06ZM77.91 40.4Q77.87 39.46 77.87 37.91Q77.87 36.34 77.91 35.42Q77.95 34.48 78.13 33.69Q78.31 32.9 78.54 32.54Q78.77 32.18 79.29 31.93Q79.81 31.68 80.38 31.62Q80.97 31.56 82 31.56Q82.76 31.56 83.25 31.59Q83.73 31.62 84.19 31.74Q84.65 31.86 84.92 32.04Q85.19 32.2 85.42 32.57Q85.67 32.94 85.77 33.35Q85.89 33.76 85.98 34.47Q86.07 35.18 86.09 35.96Q86.11 36.74 86.11 37.9Q86.11 39.46 86.07 40.4Q86.03 41.32 85.84 42.11Q85.67 42.88 85.43 43.24Q85.21 43.6 84.69 43.85Q84.17 44.1 83.58 44.17Q82.99 44.22 82 44.22Q80.98 44.22 80.39 44.17Q79.81 44.1 79.29 43.85Q78.77 43.6 78.54 43.24Q78.31 42.88 78.13 42.11Q77.95 41.32 77.91 40.4ZM79.25 37.72Q79.25 40.56 79.5 41.58Q79.67 42.36 80.19 42.68Q80.72 43 82 43Q83.29 43 83.82 42.66Q84.35 42.32 84.51 41.46Q84.73 40.43 84.73 37.94Q84.73 37.83 84.73 37.72Q84.73 35 84.5 34.06Q84.27 33.28 83.72 33.03Q83.19 32.78 82 32.78Q80.72 32.78 80.18 33.06Q79.65 33.34 79.48 34.2Q79.25 35.12 79.25 37.72ZM98.78 43.4L98.78 40.76Q98.78 40.49 98.8 40.36Q98.83 40.22 99 40.08Q99.16 39.94 99.49 39.94Q99.79 39.94 99.94 40.06Q100.11 40.18 100.13 40.3Q100.15 40.42 100.17 40.64Q100.23 41.82 101.11 42.38Q102.02 42.99 103.45 43Q104.57 43 105.23 42.32Q105.89 41.64 105.89 40.78Q105.89 39 103.67 38.52Q102.69 38.33 101.37 37.98Q100.17 37.64 99.48 36.76Q98.78 35.88 98.78 34.84Q98.78 33.52 99.84 32.54Q100.89 31.56 102.5 31.56Q104.2 31.56 105.31 32.5Q105.4 32.13 105.46 31.98Q105.53 31.82 105.68 31.7Q105.82 31.56 106.05 31.56Q106.64 31.56 106.64 32.38L106.64 35.02Q106.64 35.28 106.62 35.43Q106.6 35.56 106.43 35.7Q106.26 35.84 105.95 35.84Q105.35 35.84 105.27 35.28Q105.21 34.94 105.16 34.76Q105.11 34.58 104.91 34.15Q104.71 33.72 104.45 33.47Q104.18 33.22 103.67 33Q103.15 32.78 102.48 32.78Q101.45 32.78 100.76 33.38Q100.09 33.96 100.09 34.76Q100.09 35.45 100.55 35.94Q101.01 36.44 101.68 36.64L103.3 37Q104.58 37.3 105.11 37.53Q105.65 37.74 106.22 38.3Q107.18 39.33 107.19 40.68Q107.19 42.08 106.14 43.15Q105.09 44.22 103.43 44.22Q101.35 44.22 100.13 43.3Q99.99 43.81 99.84 44.02Q99.69 44.22 99.39 44.22Q98.78 44.22 98.78 43.4ZM108.68 43.4Q108.68 43.12 108.83 42.97Q108.99 42.82 109.11 42.8Q109.24 42.78 109.49 42.78L109.98 42.78L109.98 33L109.49 33Q108.68 33 108.68 32.4Q108.68 32.12 108.83 31.97Q108.99 31.82 109.11 31.8Q109.24 31.78 109.49 31.78L111.87 31.78Q112.11 31.78 112.24 31.8Q112.37 31.82 112.51 31.97Q112.67 32.12 112.67 32.4Q112.67 32.99 111.87 33L111.36 33L111.36 37.04L115.61 37.04L115.61 33L115.1 33Q114.86 33 114.73 32.98Q114.6 32.96 114.46 32.82Q114.31 32.66 114.31 32.38Q114.31 31.78 115.1 31.78L117.48 31.78Q117.73 31.78 117.85 31.8Q117.98 31.82 118.13 31.97Q118.28 32.12 118.28 32.4Q118.28 32.99 117.48 33L116.99 33L116.99 42.78L117.48 42.78Q117.73 42.78 117.85 42.8Q117.98 42.82 118.13 42.97Q118.28 43.12 118.28 43.4Q118.28 44 117.48 44L115.1 44Q114.86 44 114.73 43.98Q114.6 43.96 114.46 43.81Q114.31 43.66 114.31 43.38Q114.31 42.79 115.1 42.78L115.61 42.78L115.61 38.26L111.36 38.26L111.36 42.78L111.87 42.78Q112.11 42.78 112.24 42.8Q112.37 42.82 112.51 42.97Q112.67 43.12 112.67 43.4Q112.67 44 111.87 44L109.49 44Q108.68 44 108.68 43.4ZM119.91 40.4Q119.87 39.46 119.87 37.91Q119.87 36.34 119.91 35.42Q119.94 34.48 120.12 33.69Q120.31 32.9 120.53 32.54Q120.76 32.18 121.28 31.93Q121.8 31.68 122.38 31.62Q122.96 31.56 123.99 31.56Q124.75 31.56 125.24 31.59Q125.73 31.62 126.18 31.74Q126.64 31.86 126.91 32.04Q127.18 32.2 127.42 32.57Q127.66 32.94 127.77 33.35Q127.88 33.76 127.97 34.47Q128.06 35.18 128.08 35.96Q128.1 36.74 128.1 37.9Q128.1 39.46 128.06 40.4Q128.02 41.32 127.83 42.11Q127.66 42.88 127.42 43.24Q127.2 43.6 126.68 43.85Q126.17 44.1 125.57 44.17Q124.98 44.22 123.99 44.22Q122.97 44.22 122.39 44.17Q121.8 44.1 121.28 43.85Q120.76 43.6 120.53 43.24Q120.31 42.88 120.12 42.11Q119.94 41.32 119.91 40.4ZM121.24 37.72Q121.24 40.56 121.49 41.58Q121.66 42.36 122.18 42.68Q122.71 43 123.99 43Q125.29 43 125.81 42.66Q126.34 42.32 126.51 41.46Q126.72 40.43 126.72 37.94Q126.72 37.83 126.72 37.72Q126.72 35 126.49 34.06Q126.26 33.28 125.72 33.03Q125.18 32.78 123.99 32.78Q122.71 32.78 122.17 33.06Q121.64 33.34 121.47 34.2Q121.24 35.12 121.24 37.72ZM130.4 40.4Q130.36 39.46 130.36 37.91Q130.36 36.34 130.4 35.42Q130.44 34.48 130.62 33.69Q130.8 32.9 131.03 32.54Q131.26 32.18 131.78 31.93Q132.3 31.68 132.87 31.62Q133.46 31.56 134.49 31.56Q135.25 31.56 135.74 31.59Q136.22 31.62 136.68 31.74Q137.14 31.86 137.41 32.04Q137.68 32.2 137.91 32.57Q138.16 32.94 138.26 33.35Q138.38 33.76 138.47 34.47Q138.56 35.18 138.58 35.96Q138.6 36.74 138.6 37.9Q138.6 39.46 138.56 40.4Q138.52 41.32 138.33 42.11Q138.16 42.88 137.92 43.24Q137.7 43.6 137.18 43.85Q136.66 44.1 136.07 44.17Q135.48 44.22 134.49 44.22Q133.47 44.22 132.88 44.17Q132.3 44.1 131.78 43.85Q131.26 43.6 131.03 43.24Q130.8 42.88 130.62 42.11Q130.44 41.32 130.4 40.4ZM131.74 37.72Q131.74 40.56 131.99 41.58Q132.16 42.36 132.68 42.68Q133.21 43 134.49 43Q135.78 43 136.31 42.66Q136.84 42.32 137 41.46Q137.22 40.43 137.22 37.94Q137.22 37.83 137.22 37.72Q137.22 35 136.99 34.06Q136.76 33.28 136.21 33.03Q135.68 32.78 134.49 32.78Q133.21 32.78 132.67 33.06Q132.14 33.34 131.97 34.2Q131.74 35.12 131.74 37.72ZM140.26 34.06L140.26 32.6Q140.26 32.11 140.41 31.95Q140.58 31.78 141.08 31.78L148.9 31.78Q149.4 31.78 149.54 31.95Q149.7 32.12 149.7 32.6L149.7 34.06Q149.7 34.32 149.68 34.46Q149.66 34.6 149.49 34.74Q149.32 34.88 149 34.88Q148.54 34.88 148.43 34.67Q148.32 34.46 148.32 34.06L148.32 33L145.68 33L145.68 42.78L146.72 42.78Q146.97 42.78 147.09 42.8Q147.22 42.82 147.37 42.97Q147.52 43.12 147.52 43.4Q147.52 44 146.72 44L143.25 44Q143.01 44 142.88 43.98Q142.76 43.96 142.61 43.81Q142.46 43.66 142.46 43.38Q142.46 42.79 143.25 42.78L144.3 42.78L144.3 33L141.64 33L141.64 34.06Q141.64 34.32 141.61 34.46Q141.59 34.6 141.43 34.74Q141.26 34.88 140.94 34.88Q140.48 34.88 140.36 34.67Q140.26 34.46 140.26 34.06ZM154.22 42.74Q154.22 42.26 154.57 41.88Q154.93 41.5 155.48 41.5Q155.98 41.5 156.35 41.86Q156.72 42.22 156.72 42.74Q156.72 43.22 156.37 43.61Q156.02 44 155.48 44Q154.98 44 154.6 43.63Q154.22 43.26 154.22 42.74Z" />
	<path id="That is all. " fill="#000000" d="M43.52 51.04L43.52 50.16Q43.52 49.86 43.61 49.77Q43.71 49.67 44.01 49.67L48.7 49.67Q49 49.67 49.09 49.77Q49.18 49.87 49.18 50.16L49.18 51.04Q49.18 51.19 49.17 51.28Q49.16 51.36 49.05 51.45Q48.96 51.53 48.76 51.53Q48.49 51.53 48.42 51.4Q48.36 51.28 48.36 51.04L48.36 50.4L46.77 50.4L46.77 56.27L47.4 56.27Q47.54 56.27 47.62 56.28Q47.7 56.29 47.78 56.38Q47.88 56.47 47.88 56.64Q47.88 57 47.4 57L45.32 57Q45.17 57 45.09 56.99Q45.02 56.98 44.93 56.89Q44.84 56.79 44.84 56.63Q44.84 56.27 45.32 56.27L45.94 56.27L45.94 50.4L44.35 50.4L44.35 51.04Q44.35 51.19 44.33 51.28Q44.32 51.36 44.22 51.45Q44.12 51.53 43.93 51.53Q43.65 51.53 43.58 51.4Q43.52 51.28 43.52 51.04ZM49.65 56.64Q49.65 56.27 50.14 56.27L50.67 56.27L50.67 50.4L50.13 50.4Q49.65 50.4 49.65 50.04Q49.65 49.67 50.14 49.67L51.02 49.67Q51.32 49.67 51.4 49.77Q51.5 49.87 51.5 50.16L51.5 52.39Q52.14 51.76 53.07 51.76Q54.63 51.76 54.63 53.48L54.63 56.27L55.16 56.27Q55.65 56.27 55.65 56.64Q55.65 57 55.17 57L53.33 57Q52.84 57 52.84 56.64Q52.84 56.27 53.33 56.27L53.8 56.27L53.8 53.54Q53.8 52.98 53.63 52.73Q53.46 52.49 53 52.49Q52.45 52.49 51.97 52.91Q51.5 53.33 51.5 54.15L51.5 56.27L52.03 56.27Q52.52 56.27 52.52 56.64Q52.52 57 52.04 57L50.13 57Q49.65 57 49.65 56.64ZM56.47 55.46Q56.47 54.63 57.44 54.16Q58.42 53.7 60.06 53.68Q60.06 53.07 59.65 52.76Q59.25 52.45 58.53 52.45Q58.27 52.45 58.1 52.46Q57.91 52.48 57.88 52.5Q57.84 52.52 57.84 52.59Q57.83 52.89 57.66 53.02Q57.5 53.15 57.32 53.15Q57.09 53.15 56.93 53Q56.78 52.86 56.78 52.59Q56.78 51.72 58.49 51.72Q58.51 51.72 58.52 51.72Q59.71 51.72 60.3 52.28Q60.89 52.85 60.89 53.58L60.89 56.17Q61.14 56.27 61.61 56.27Q62.09 56.27 62.09 56.63Q62.09 56.81 62 56.89Q61.91 56.98 61.81 56.99Q61.71 57 61.49 57Q60.47 57 60.2 56.61Q59.5 57.07 58.45 57.07Q57.56 57.07 57.01 56.6Q56.47 56.12 56.47 55.46ZM57.29 55.46Q57.29 55.82 57.64 56.08Q57.99 56.34 58.53 56.34Q59.17 56.34 59.6 56.14Q59.81 56.04 59.92 55.9Q60.03 55.76 60.05 55.67Q60.06 55.57 60.06 55.39L60.06 54.39Q58.78 54.42 58.04 54.72Q57.29 55.02 57.29 55.46ZM62.4 52.2Q62.4 51.83 62.89 51.83L63.94 51.83L63.94 50.84Q63.94 50.68 63.95 50.6Q63.96 50.52 64.06 50.44Q64.17 50.35 64.36 50.35Q64.63 50.35 64.7 50.48Q64.77 50.6 64.77 50.84L64.77 51.83L66.74 51.83Q66.88 51.83 66.96 51.84Q67.04 51.85 67.13 51.94Q67.21 52.03 67.21 52.2Q67.21 52.56 66.74 52.56L64.77 52.56L64.77 55.42Q64.77 55.59 64.79 55.7Q64.8 55.81 64.88 55.99Q64.96 56.16 65.16 56.25Q65.37 56.34 65.69 56.34Q65.88 56.34 66.08 56.29Q66.27 56.23 66.46 56.02Q66.66 55.81 66.66 55.48Q66.66 55.34 66.68 55.26Q66.7 55.18 66.79 55.1Q66.89 55.02 67.07 55.02Q67.27 55.02 67.37 55.11Q67.46 55.19 67.48 55.27Q67.49 55.34 67.49 55.49Q67.49 56.23 66.93 56.65Q66.36 57.07 65.63 57.07Q64.9 57.07 64.42 56.68Q63.94 56.29 63.94 55.49L63.94 52.56L62.88 52.56Q62.4 52.56 62.4 52.2ZM75.64 56.64Q75.64 56.27 76.13 56.27L77.58 56.27L77.58 52.56L76.22 52.56Q75.73 52.56 75.73 52.19Q75.73 51.83 76.22 51.83L77.93 51.83Q78.23 51.83 78.32 51.93Q78.41 52.03 78.41 52.32L78.41 56.27L79.67 56.27Q80.16 56.27 80.16 56.64Q80.16 57 79.67 57L76.13 57Q75.64 57 75.64 56.64ZM77.38 50.68Q77.21 50.51 77.21 50.26Q77.21 50 77.38 49.83Q77.55 49.66 77.81 49.66Q78.06 49.66 78.23 49.83Q78.41 50 78.41 50.26Q78.41 50.51 78.23 50.68Q78.06 50.85 77.81 50.85Q77.55 50.85 77.38 50.68ZM81.86 56.58L81.86 55.42Q81.86 55.26 81.87 55.18Q81.89 55.09 81.99 55.01Q82.09 54.93 82.28 54.93Q82.5 54.93 82.58 55Q82.66 55.08 82.71 55.27Q83.06 56.34 84.24 56.34Q85.01 56.34 85.39 56.1Q85.78 55.86 85.78 55.5Q85.78 55.27 85.63 55.11Q85.49 54.95 85.21 54.85Q84.93 54.74 84.74 54.7Q84.55 54.66 84.23 54.61Q83.79 54.54 83.55 54.5Q83.3 54.46 82.93 54.35Q82.56 54.23 82.36 54.09Q82.17 53.94 82.01 53.7Q81.86 53.45 81.86 53.14Q81.86 52.98 81.9 52.82Q81.95 52.66 82.09 52.45Q82.24 52.25 82.47 52.1Q82.71 51.94 83.13 51.83Q83.57 51.72 84.15 51.72Q84.9 51.72 85.43 51.97Q85.5 51.72 85.79 51.72Q86.14 51.72 86.15 52.21L86.15 53.04Q86.15 53.2 86.13 53.28Q86.12 53.36 86.02 53.45Q85.92 53.53 85.73 53.53Q85.56 53.53 85.46 53.47Q85.37 53.4 85.35 53.33Q85.33 53.26 85.32 53.12Q85.25 52.45 84.13 52.45Q84.12 52.45 84.12 52.45Q83.34 52.45 82.96 52.66Q82.59 52.86 82.59 53.14Q82.59 53.64 83.76 53.79Q83.84 53.81 84.57 53.94Q86.51 54.24 86.51 55.5Q86.51 55.69 86.46 55.89Q86.4 56.07 86.25 56.3Q86.1 56.52 85.85 56.69Q85.61 56.85 85.18 56.96Q84.77 57.07 84.23 57.07Q83.29 57.07 82.67 56.61Q82.52 57.07 82.22 57.07Q81.86 57.07 81.86 56.58ZM94.26 55.46Q94.26 54.63 95.23 54.16Q96.21 53.7 97.86 53.68Q97.86 53.07 97.45 52.76Q97.04 52.45 96.32 52.45Q96.06 52.45 95.89 52.46Q95.71 52.48 95.67 52.5Q95.64 52.52 95.64 52.59Q95.63 52.89 95.46 53.02Q95.29 53.15 95.11 53.15Q94.88 53.15 94.72 53Q94.57 52.86 94.57 52.59Q94.57 51.72 96.29 51.72Q96.3 51.72 96.31 51.72Q97.5 51.72 98.09 52.28Q98.68 52.85 98.68 53.58L98.68 56.17Q98.94 56.27 99.4 56.27Q99.88 56.27 99.88 56.63Q99.88 56.81 99.79 56.89Q99.7 56.98 99.6 56.99Q99.5 57 99.29 57Q98.27 57 97.99 56.61Q97.29 57.07 96.24 57.07Q95.35 57.07 94.8 56.6Q94.26 56.12 94.26 55.46ZM95.09 55.46Q95.09 55.82 95.43 56.08Q95.78 56.34 96.32 56.34Q96.96 56.34 97.39 56.14Q97.61 56.04 97.71 55.9Q97.82 55.76 97.84 55.67Q97.86 55.57 97.86 55.39L97.86 54.39Q96.57 54.42 95.83 54.72Q95.09 55.02 95.09 55.46ZM100.59 56.64Q100.59 56.27 101.09 56.27L102.63 56.27L102.63 50.4L101.07 50.4Q100.59 50.4 100.59 50.04Q100.59 49.67 101.09 49.67L102.98 49.67Q103.28 49.67 103.37 49.77Q103.46 49.87 103.46 50.16L103.46 56.27L105.02 56.27Q105.16 56.27 105.24 56.28Q105.32 56.29 105.41 56.38Q105.5 56.47 105.5 56.64Q105.5 57 105.02 57L101.07 57Q100.59 57 100.59 56.64ZM106.89 56.64Q106.89 56.27 107.38 56.27L108.93 56.27L108.93 50.4L107.37 50.4Q106.89 50.4 106.89 50.04Q106.89 49.67 107.38 49.67L109.28 49.67Q109.58 49.67 109.66 49.77Q109.76 49.87 109.76 50.16L109.76 56.27L111.32 56.27Q111.46 56.27 111.54 56.28Q111.62 56.29 111.71 56.38Q111.8 56.47 111.8 56.64Q111.8 57 111.32 57L107.37 57Q106.89 57 106.89 56.64ZM114.88 56.24Q114.88 55.96 115.1 55.73Q115.31 55.5 115.64 55.5Q115.94 55.5 116.16 55.72Q116.38 55.93 116.38 56.24Q116.38 56.53 116.17 56.77Q115.96 57 115.64 57Q115.34 57 115.11 56.78Q114.88 56.55 114.88 56.24Z" />
</svg>