<svg xmlns="http://www.w3.org/2000/svg" viewBox="0 0 30 50" width="30" height="50">
	<defs>
		<clipPath clipPathUnits="userSpaceOnUse" id="cp1">
			<path d="M15 0L15 0C23.3 0 30 6.7 30 15L30 35C30 43.3 23.3 50 15 50L15 50C6.7 50 0 43.3 0 35L0 15C0 6.7 6.7 0 15 0Z" />
		</clipPath>
	</defs>
	<style>
		tspan { white-space:pre }
		.shp0 { fill: #001464 } 
		.shp1 { fill: #ffffff } 
		.shp2 { fill: #ff0000 } 
		.shp3 { fill: #000000 } 
	</style>
	<path id="Background" class="shp0" d="M15 0L15 0C23.3 0 30 6.7 30 15L30 35C30 43.3 23.3 50 15 50L15 50C6.7 50 0 43.3 0 35L0 15C0 6.7 6.7 0 15 0Z" />
	<g id="Clip-Path: Folder 1" clip-path="url(#cp1)">
		<g id="Folder 1">
			<path id="Layer 3" class="shp1" d="M11.47 23.57L30 26L27.37 36.08L20.16 35.38L11.47 23.57Z" />
			<path id="Layer 3" class="shp2" d="M23 25L22 30L23 36L24 32L23 25Z" />
			<path id="Layer 3" class="shp3" d="M21 36C21 36 26.1 22.95 32.29 23.14C38.48 23.34 31 55 31 55L21 37" />
			<path id="Layer 3" class="shp3" d="M-2.56 19.74C-2.56 19.74 15.4 21.3 19.09 25.15C22.78 29 28.75 44.77 25.96 62.94C23.17 81.1 -17.24 52.39 -11.24 37.77C-5.24 23.16 -2.56 19.74 -2.56 19.74Z" />
		</g>
	</g>
	<path id="Layer 1" class="shp3" d="M24 11C24 11 19.57 10.1 17 9C14.43 7.9 13.39 14.32 15 15C16.61 15.68 22 17.58 24 17C26 16.42 24 11 24 11Z" />
	<path id="Layer 1 copy" class="shp3" d="M29.12 11C29.12 11 33.55 10.1 36.12 9C38.7 7.9 39.73 14.32 38.12 15C36.52 15.68 31.12 17.58 29.12 17C27.12 16.42 29.12 11 29.12 11Z" />
	<path id="Layer 2" class="shp3" d="M24 11L29 12L29 13L24 13L24 12" />
</svg>