<svg version="1.2" baseProfile="tiny-ps" xmlns="http://www.w3.org/2000/svg" viewBox="0 0 30 50" width="30" height="50">
	<title>badbean-svg</title>
	<defs>
		<clipPath clipPathUnits="userSpaceOnUse" id="cp1">
			<path d="M15 0L15 0C23.3 0 30 6.7 30 15L30 35C30 43.3 23.3 50 15 50L15 50C6.7 50 0 43.3 0 35L0 15C0 6.7 6.7 0 15 0Z" />
		</clipPath>
	</defs>
	<style>
		tspan { white-space:pre }
		.shp0 { fill: #641400 } 
		.shp1 { fill: #b0b0b0 } 
		.shp2 { fill: #000000 } 
	</style>
	<path id="Background" class="shp0" d="M15 0L15 0C6.7 0 0 6.7 0 15L0 35C0 43.3 6.7 50 15 50L15 50C23.3 50 30 43.3 30 35L30 15C30 6.7 23.3 0 15 0Z" />
	<g id="Folder 1" clip-path="url(#cp1)">
		<path id="Layer 3" class="shp1" d="M-3 25L34.5 11.08L35 52L-12 63" />
	</g>
	<path id="Layer 1" class="shp2" d="M6 11C6 11 10.43 10.1 13 9C15.57 7.9 16.61 14.32 15 15C13.39 15.68 8 17.58 6 17C4 16.42 6 11 6 11Z" />
	<path id="Layer 1 copy" class="shp2" d="M0.88 11C0.88 11 -3.55 10.1 -6.12 9C-8.7 7.9 -9.73 14.32 -8.12 15C-6.52 15.68 -1.12 17.58 0.88 17C2.88 16.42 0.88 11 0.88 11Z" />
	<path id="Layer 2" class="shp2" d="M6 11L1 12L1 13L6 13L6 12" />
</svg>